<svg xmlns="http://www.w3.org/2000/svg" xmlns:xlink="http://www.w3.org/1999/xlink" viewBox="0 0 84 24"><defs><style>.a{fill:#e1d8b7;}.b{fill:#fff;}.c{fill:#9fe55c;}</style><symbol id="a" viewBox="0 0 55 12"><polygon points="0 0 0 11 1 11 1 12 8 12 8 8 6 8 6 10 2 10 2 2 6 2 6 4 8 4 8 0 0 0"/><path d="M9,4v8h8V4Zm6,6H11V6h4Z"/><polygon points="25 5 25 4 18 4 18 12 20 12 20 6 24 6 24 12 26 12 26 5 25 5"/><polygon points="42 4 42 10 38 10 38 4 36 4 36 11 37 11 37 12 44 12 44 4 42 4"/><polygon points="45 12 47 12 47 4 45 4 45 12"/><polygon points="55 6 55 4 52 4 52 1 50 1 50 4 48 4 48 6 50 6 50 11 51 11 51 12 55 12 55 10 52 10 52 6 55 6"/><path d="M33,0V4H27v8h8V0Zm0,10H29V6h4Z"/><polygon points="45 3 47 3 47 1 45 1 45 3"/><polygon points="13 8 13 9 14 9 14 7 12 7 12 8 13 8"/><polygon class="a" points="12 7 12 8 13 8 13 9 14 9 14 7 12 7"/><path class="c" d="M45,6"/></symbol><symbol id="b" viewBox="0 0 18 18"><rect width="18" height="18"/></symbol><symbol id="c" viewBox="0 0 16 16"><rect class="a" width="16" height="16"/><polygon points="1 1 1 5 2 5 2 8 6 8 6 10 8 10 8 11 7 11 7 15 11 15 11 14 14 14 14 2 5 2 5 1 1 1"/><polygon class="b" points="7 7 7 8 8 8 8 9 9 9 9 7 7 7"/><polygon class="b" points="2 4 3 4 3 3 4 3 4 2 2 2 2 4"/><polygon class="b" points="10 14 10 13 9 13 9 12 8 12 8 14 10 14"/><polygon class="a" points="5 3 5 5 3 5 3 7 6 7 6 6 10 6 10 10 9 10 9 11 11 11 11 13 13 13 13 3 5 3"/></symbol></defs><title>Conduit</title><use width="55" height="12" transform="translate(25 6)" xlink:href="#a"/><use width="18" height="18" transform="translate(3 3)" xlink:href="#b"/><use width="16" height="16" transform="translate(4 4)" xlink:href="#c"/></svg>