<svg xmlns="http://www.w3.org/2000/svg" width="336" height="368" viewBox="0 0 336 368"><defs><style>.a,.g{font-size:16px;}.a{font-family:OpenSans-Bold, Open Sans;font-weight:700;}.b,.c,.d,.e,.f{fill:none;stroke-miterlimit:10;}.b,.d,.e,.f{stroke:#000;}.b{stroke-width:8px;}.c{stroke:#fff;stroke-width:4px;}.d,.e,.f{stroke-width:2px;}.e{stroke-dasharray:7.9 3.95;}.f{stroke-dasharray:8.09 4.05;}.g{fill:#fff;font-family:OpenSans, Open Sans;}</style></defs><title>conduit-patterns</title><text class="a" transform="translate(152 46)">App</text><polyline class="b" points="104 104 104 296 200 296"/><line class="b" x1="200" y1="200" x2="200" y2="250"/><polygon points="190 247 200 264 210 247 190 247"/><polyline class="b" points="200 296 296 296 296 104 182 104"/><polygon points="185 94 168 104 185 114 185 94"/><polyline class="c" points="104 104 104 296 200 296"/><polyline class="b" points="104 104 104 200 122 200"/><polygon points="119 210 136 200 119 190 119 210"/><polyline class="d" points="328 356 328 360 324 360"/><line class="e" x1="320" y1="360" x2="14" y2="360"/><polyline class="d" points="12 360 8 360 8 356"/><line class="f" x1="8" y1="352" x2="8" y2="14"/><polyline class="d" points="8 12 8 8 12 8"/><line class="e" x1="16" y1="8" x2="322" y2="8"/><polyline class="d" points="324 8 328 8 328 12"/><line class="f" x1="328" y1="16" x2="328" y2="354"/><rect x="40" y="72" width="128" height="64"/><text class="g" transform="translate(85 110)">State</text><rect x="136" y="168" width="128" height="64"/><text class="g" transform="translate(152 206)">Components</text><rect x="136" y="264" width="128" height="64"/><text class="g" transform="translate(165 302)">Reducers</text></svg>