<svg xmlns="http://www.w3.org/2000/svg" width="440" height="656" viewBox="0 0 440 656"><defs><style>.a,.f{font-size:16px;}.a{font-family:OpenSans-Bold, Open Sans;font-weight:700;}.b,.c,.d,.e,.g{fill:none;stroke-miterlimit:10;}.b,.c,.d,.e{stroke:#000;}.b{stroke-width:8px;}.c,.d,.e{stroke-width:2px;}.d{stroke-dasharray:8 4;}.e{stroke-dasharray:8.07 4.04;}.f{fill:#fff;font-family:OpenSans, Open Sans;}.g{stroke:#fff;stroke-width:4px;}</style></defs><title>conduit-patterns</title><text class="a" transform="translate(166 134)">Eventful Component<tspan x="34" y="18">(Composite)</tspan></text><polyline class="b" points="72 40 72 616 296 616"/><polyline class="b" points="296 616 424 616 424 40 150 40"/><polygon points="153 30 136 40 153 50 153 30"/><polyline class="c" points="392 548 392 552 388 552"/><line class="d" x1="384" y1="552" x2="110" y2="552"/><polyline class="c" points="108 552 104 552 104 548"/><line class="e" x1="104" y1="544" x2="104" y2="110"/><polyline class="c" points="104 108 104 104 108 104"/><line class="d" x1="112" y1="104" x2="386" y2="104"/><polyline class="c" points="388 104 392 104 392 108"/><line class="e" x1="392" y1="112" x2="392" y2="546"/><rect x="136" y="168" width="128" height="64"/><text class="f" transform="translate(183 198)">View<tspan x="-27" y="18">Component</tspan></text><line class="b" x1="296" y1="488" x2="296" y2="570"/><polygon points="286 567 296 584 306 567 286 567"/><polyline class="b" points="72 40 72 488 296 488"/><polyline class="g" points="72 40 72 488 296 488"/><polyline class="g" points="72 40 72 616 296 616"/><polyline class="b" points="72 40 72 200 122 200"/><polygon points="119 210 136 200 119 190 119 210"/><rect x="232" y="584" width="128" height="64"/><text class="f" transform="translate(261 622)">Reducers</text><rect x="232" y="456" width="128" height="64"/><text class="f" transform="translate(274 494)">Intent</text><polyline class="b" points="72 40 72 296 122 296"/><polygon points="119 306 136 296 119 286 119 306"/><polyline class="b" points="72 40 72 392 122 392"/><polygon points="119 402 136 392 119 382 119 402"/><rect x="8" y="8" width="128" height="64"/><text class="f" transform="translate(53 46)">State</text><line class="b" x1="200" y1="392" x2="296" y2="392"/><rect x="136" y="360" width="128" height="64"/><text class="f" transform="translate(171 390)">Stateful<tspan x="-16" y="18">Component</tspan></text><polyline class="b" points="200 296 296 296 296 442"/><polygon points="286 439 296 456 306 439 286 439"/><rect x="136" y="264" width="128" height="64"/><text class="f" transform="translate(170 294)">Eventful<tspan x="-14" y="18">Component</tspan></text></svg>