<svg xmlns="http://www.w3.org/2000/svg" viewBox="0 0 344 560"><defs><style>.a,.f{font-size:16px;}.a{font-family:OpenSans-Bold, Open Sans;font-weight:700;}.b,.c,.d,.e,.g{fill:none;stroke-miterlimit:10;}.b,.c,.d,.e{stroke:#000;}.b{stroke-width:8px;}.c,.d,.e{stroke-width:2px;}.d{stroke-dasharray:8 4;}.e{stroke-dasharray:8.09 4.05;}.f{fill:#fff;font-family:OpenSans, Open Sans;}.g{stroke:#fff;stroke-width:4px;}</style></defs><title>conduit-patterns</title><text class="a" transform="translate(167 134)">Eventful<tspan x="-13" y="18">Component</tspan></text><polyline class="b" points="72 40 72 520 200 520"/><line class="b" x1="200" y1="200" x2="200" y2="250"/><polygon points="190 247 200 264 210 247 190 247"/><polyline class="b" points="200 520 328 520 328 40 150 40"/><polygon points="153 30 136 40 153 50 153 30"/><polyline class="c" points="296 452 296 456 292 456"/><line class="d" x1="288" y1="456" x2="110" y2="456"/><polyline class="c" points="108 456 104 456 104 452"/><line class="e" x1="104" y1="448" x2="104" y2="110"/><polyline class="c" points="104 108 104 104 108 104"/><line class="d" x1="112" y1="104" x2="290" y2="104"/><polyline class="c" points="292 104 296 104 296 108"/><line class="e" x1="296" y1="112" x2="296" y2="450"/><rect x="136" y="168" width="128" height="64"/><text class="f" transform="translate(183 198)">View<tspan x="-27" y="18">Component</tspan></text><line class="b" x1="200" y1="296" x2="200" y2="346"/><polygon points="190 343 200 360 210 343 190 343"/><line class="b" x1="200" y1="392" x2="200" y2="474"/><polygon points="190 471 200 488 210 471 190 471"/><polyline class="b" points="72 40 72 392 200 392"/><polyline class="g" points="72 40 72 392 200 392"/><polyline class="g" points="72 40 72 520 200 520"/><rect x="136" y="264" width="128" height="64"/><text class="f" transform="translate(176 302)">Events</text><polyline class="b" points="72 40 72 200 122 200"/><polygon points="119 210 136 200 119 190 119 210"/><rect x="8" y="8" width="128" height="64"/><text class="f" transform="translate(53 46)">State</text><rect x="136" y="488" width="128" height="64"/><text class="f" transform="translate(165 526)">Reducers</text><rect x="136" y="360" width="128" height="64"/><text class="f" transform="translate(178 398)">Intent</text></svg>