<svg xmlns="http://www.w3.org/2000/svg" viewBox="0 0 280 352"><defs><style>.a,.e{font-size:16px;}.a{font-family:OpenSans-Bold, Open Sans;font-weight:700;}.b,.c,.d,.f{fill:none;stroke-miterlimit:10;}.b,.d,.f{stroke:#000;}.b{stroke-width:8px;}.c{stroke:#fff;stroke-width:4px;}.d,.f{stroke-width:2px;}.e{font-family:OpenSans, Open Sans;}.f{stroke-dasharray:9.14 4.57;}</style></defs><title>conduit-patterns</title><text class="a" transform="translate(111 46)">Legend</text><line class="b" x1="40" y1="304" x2="80" y2="304"/><line class="c" x1="40" y1="304" x2="80" y2="304"/><line class="b" x1="40" y1="248" x2="66" y2="248"/><polygon points="63 258 80 248 63 238 63 258"/><rect class="d" x="8" y="8" width="264" height="336"/><text class="e" transform="translate(112 112)">Logic boundaries</text><text class="e" transform="translate(112 184)">Module</text><text class="e" transform="translate(112 252)">Data push</text><text class="e" transform="translate(112 308)">Data pull</text><rect x="40" y="160" width="40" height="40"/><polyline class="d" points="80 124 80 128 76 128"/><line class="f" x1="71" y1="128" x2="46" y2="128"/><polyline class="d" points="44 128 40 128 40 124"/><line class="f" x1="40" y1="119" x2="40" y2="94"/><polyline class="d" points="40 92 40 88 44 88"/><line class="f" x1="49" y1="88" x2="74" y2="88"/><polyline class="d" points="76 88 80 88 80 92"/><line class="f" x1="80" y1="97" x2="80" y2="122"/></svg>