<svg xmlns="http://www.w3.org/2000/svg" width="312" height="464" viewBox="0 0 312 464"><defs><style>.a,.d,.e,.f,.g{fill:none;stroke-miterlimit:10;}.a,.e,.f,.g{stroke:#000;}.a{stroke-width:8px;}.b,.c{font-size:16px;}.b{fill:#fff;font-family:OpenSans, Open Sans;}.c{font-family:OpenSans-Bold, Open Sans;font-weight:700;}.d{stroke:#fff;stroke-width:4px;}.e,.f,.g{stroke-width:2px;}.f{stroke-dasharray:8 4;}.g{stroke-dasharray:8.13 4.07;}</style></defs><title>conduit-patterns</title><line class="a" x1="200" y1="328" x2="200" y2="378"/><polygon points="190 375 200 392 210 375 190 375"/><rect x="136" y="296" width="128" height="64"/><text class="b" transform="translate(152 334)">Components</text><text class="c" transform="translate(83 46)">State</text><polyline class="a" points="104 200 104 424 200 424"/><line class="a" x1="104" y1="104" x2="104" y2="154"/><polygon points="94 151 104 168 114 151 94 151"/><polyline class="a" points="200 424 296 424 296 104 182 104"/><polygon points="185 94 168 104 185 114 185 94"/><polyline class="d" points="104 200 104 424 200 424"/><polyline class="a" points="104 200 104 328 122 328"/><polygon points="119 338 136 328 119 318 119 338"/><polyline class="e" points="200 260 200 264 196 264"/><line class="f" x1="192" y1="264" x2="14" y2="264"/><polyline class="e" points="12 264 8 264 8 260"/><line class="g" x1="8" y1="256" x2="8" y2="14"/><polyline class="e" points="8 12 8 8 12 8"/><line class="f" x1="16" y1="8" x2="194" y2="8"/><polyline class="e" points="196 8 200 8 200 12"/><line class="g" x1="200" y1="16" x2="200" y2="258"/><rect x="40" y="72" width="128" height="64"/><text class="b" transform="translate(80 110)">Values</text><rect x="40" y="168" width="128" height="64"/><text class="b" transform="translate(75 206)">Derived</text><rect x="136" y="392" width="128" height="64"/><text class="b" transform="translate(165 430)">Reducers</text></svg>