<svg xmlns="http://www.w3.org/2000/svg" viewBox="0 0 504 560"><defs><style>.a,.c,.d,.e,.f{fill:none;stroke-miterlimit:10;}.a,.d,.e,.f{stroke:#000;}.a{stroke-width:8px;}.b,.g{font-size:16px;}.b{font-family:OpenSans-Bold, Open Sans;font-weight:700;}.c{stroke:#fff;stroke-width:4px;}.d,.e,.f{stroke-width:2px;}.e{stroke-dasharray:8.09 4.05;}.f{stroke-dasharray:8.09 4.05;}.g{fill:#fff;font-family:OpenSans, Open Sans;}</style></defs><title>conduit-patterns</title><line class="a" x1="296" y1="296" x2="296" y2="346"/><polygon points="286 343 296 360 306 343 286 343"/><text class="b" transform="translate(200 142)">Stateful Component</text><polyline class="a" points="72 40 72 520 392 520"/><polyline class="a" points="392 520 488 520 488 40 150 40"/><polygon points="153 30 136 40 153 50 153 30"/><polyline class="c" points="72 40 72 520 392 520"/><polyline class="a" points="72 40 72 200 122 200"/><polygon points="119 210 136 200 119 190 119 210"/><polyline class="d" points="456 452 456 456 452 456"/><line class="e" x1="448" y1="456" x2="110" y2="456"/><polyline class="d" points="108 456 104 456 104 452"/><line class="f" x1="104" y1="448" x2="104" y2="110"/><polyline class="d" points="104 108 104 104 108 104"/><line class="e" x1="112" y1="104" x2="450" y2="104"/><polyline class="d" points="452 104 456 104 456 108"/><line class="f" x1="456" y1="112" x2="456" y2="450"/><rect x="328" y="488" width="128" height="64"/><text class="g" transform="translate(357 526)">Reducers</text><rect x="8" y="8" width="128" height="64"/><text class="g" transform="translate(53 46)">State</text><polyline class="a" points="200 200 200 392 296 392"/><polyline class="c" points="200 200 200 392 296 392"/><polyline class="a" points="200 200 200 296 218 296"/><polygon points="215 306 232 296 215 286 215 306"/><rect x="136" y="168" width="128" height="64"/><text class="g" transform="translate(181 206)">State</text><polyline class="a" points="408 392 424 392 424 200 278 200"/><polygon points="281 190 264 200 281 210 281 190"/><polyline class="a" points="296 296 392 296 392 474"/><polygon points="382 471 392 488 402 471 382 471"/><line class="a" x1="296" y1="392" x2="376" y2="392"/><rect x="232" y="360" width="128" height="64"/><text class="g" transform="translate(261 398)">Reducers</text><rect x="232" y="264" width="128" height="64"/><text class="g" transform="translate(266 294)">Eventful <tspan x="-14" y="18">Component</tspan></text></svg>