<svg xmlns="http://www.w3.org/2000/svg" viewBox="0 0 344 464"><defs><style>.a,.g{font-size:16px;}.a{font-family:OpenSans-Bold, Open Sans;font-weight:700;}.b,.c,.d,.e,.f{fill:none;stroke-miterlimit:10;}.b,.d,.e,.f{stroke:#000;}.b{stroke-width:8px;}.c{stroke:#fff;stroke-width:4px;}.d,.e,.f{stroke-width:2px;}.e{stroke-dasharray:8 4;}.f{stroke-dasharray:8.13 4.07;}.g{fill:#fff;font-family:OpenSans, Open Sans;}</style></defs><title>conduit-patterns</title><text class="a" transform="translate(181 134)">View<tspan x="-27" y="18">Component</tspan></text><polyline class="b" points="72 40 72 424 200 424"/><line class="b" x1="200" y1="200" x2="200" y2="250"/><polygon points="190 247 200 264 210 247 190 247"/><polyline class="b" points="200 424 328 424 328 40 150 40"/><polygon points="153 30 136 40 153 50 153 30"/><polyline class="c" points="72 40 72 424 200 424"/><polyline class="b" points="72 40 72 200 122 200"/><polygon points="119 210 136 200 119 190 119 210"/><polyline class="d" points="296 356 296 360 292 360"/><line class="e" x1="288" y1="360" x2="110" y2="360"/><polyline class="d" points="108 360 104 360 104 356"/><line class="f" x1="104" y1="352" x2="104" y2="110"/><polyline class="d" points="104 108 104 104 108 104"/><line class="e" x1="112" y1="104" x2="290" y2="104"/><polyline class="d" points="292 104 296 104 296 108"/><line class="f" x1="296" y1="112" x2="296" y2="354"/><rect x="136" y="168" width="128" height="64"/><text class="g" transform="translate(170 206)">Selector</text><rect x="136" y="264" width="128" height="64"/><text class="g" transform="translate(178 302)">HTML</text><rect x="136" y="392" width="128" height="64"/><text class="g" transform="translate(165 430)">Reducers</text><rect x="8" y="8" width="128" height="64"/><text class="g" transform="translate(53 46)">State</text></svg>